<svg xmlns="http://www.w3.org/2000/svg" xmlns:xlink="http://www.w3.org/1999/xlink" preserveAspectRatio="xMidYMid meet" version="1.0" viewBox="-0.2 0.0 469.5 272.6" zoomAndPan="magnify" style="fill: rgb(136, 136, 136);" original_string_length="16142"><g id="__id111_szzowew9zb"><path d="M276.83,5.04c-2.12,0.14-4.08-0.08-6.13,0.36c-2.15,0.46-4.51-0.08-6.78-0.1c-1.13-0.01-2.26,0.14-3.39,0.23 c-0.81,0.07-1.62,0.2-2.43,0.23c-2.86,0.1-5.72,0.13-8.57,0.27c-1.1,0.05-2.19,0.33-3.3,0.45c-0.33,0.04-0.67-0.1-1.01-0.16 c0.13-0.26,0.31-0.5,0.37-0.77c0.04-0.14-0.14-0.48-0.19-0.48c-0.33,0.04-0.81,0.03-0.96,0.24c-0.88,1.27-2.28,1.2-3.53,1.39 c-2.23,0.34-4.48,0.49-6.72,0.76c-1.48,0.18-2.94,0.49-4.42,0.66c-1.86,0.22-3.75,0.28-5.6,0.56c-2.36,0.35-4.7,0.89-7.06,1.25 c-1.43,0.22-2.9,0.21-4.33,0.43c-1.68,0.26-3.34,0.63-5.01,0.99c-0.92,0.19-1.81,0.55-2.73,0.65c-0.72,0.08-1.4-0.01-1.7,0.85 c-0.03,0.1-0.34,0.13-0.53,0.14c-1.55,0.09-3.09,0.16-4.64,0.25c-0.03,0-0.06,0.05-0.09,0.08c-1.47,1.62-3.46,0.82-5.21,1.14 c-1.13,0.21-2.23,0.63-3.35,0.91c-1.17,0.29-2.38,0.43-3.54,0.78c-2.1,0.63-4.15,1.45-6.27,2.01c-1.24,0.33-2.3,1.57-3.79,0.88 c-0.12-0.06-0.31-0.01-0.46,0.04c-1.79,0.66-3.55,1.39-5.37,1.96c-1.5,0.47-3.07,0.73-4.59,1.13c-0.9,0.24-1.77,0.58-2.66,0.85 c-1.72,0.52-3.33,1.49-5.24,1.34c-0.36-0.03-0.96,0.2-1.08,0.47c-0.46,1.03-1.3,0.99-2.15,0.93c-0.98-0.07-1.72,0.36-2.58,0.76 c-1.57,0.74-3.3,1.13-4.97,1.65c-0.32,0.1-0.68,0.11-0.98,0.25c-1.03,0.52-1.99,1.21-3.07,1.61c-1.08,0.4-2.32,0.41-3.39,0.83 c-0.92,0.36-1.72,1.05-2.58,1.57c-0.22,0.13-0.47,0.24-0.71,0.31c-2.31,0.73-4.62,1.45-6.93,2.17c-0.11,0.03-0.31-0.05-0.35,0.01 c-1.3,1.77-3.59,1.66-5.25,2.77c-0.67,0.45-1.52,1.07-2.2,0.97c-2.25-0.31-3.44,1.48-5.13,2.25c-1.28,0.58-2.67,0.93-3.96,1.49 c-0.89,0.38-1.68,0.99-2.54,1.44c-1.95,1.01-3.9,2.01-5.87,2.98c-0.46,0.23-1.01,0.29-1.46,0.53c-1.18,0.65-2.32,1.38-3.5,2.03 c-2.06,1.13-4.14,2.22-6.21,3.33c-2.1,1.13-4.25,2.19-6.28,3.43c-2.38,1.44-4.61,3.14-7.03,4.51c-1,0.57-2.03,1.11-3.04,1.67 c-0.88,0.49-1.57,1.08-2.27,1.75c-0.44,0.43-1.09,0.63-1.64,0.96c-0.68,0.41-1.34,0.84-2,1.27c-1.33,0.86-2.67,1.7-3.98,2.59 c-0.76,0.52-1.46,1.12-2.2,1.67c-1.44,1.05-2.9,2.08-4.34,3.14c-1.08,0.8-2.11,1.65-3.18,2.45c-1.92,1.44-3.89,2.82-5.77,4.31 c-1.05,0.83-1.94,1.85-2.95,2.72c-2.8,2.43-5.73,4.72-8.41,7.27c-3.12,2.98-6.46,5.78-8.98,9.36c-0.39,0.56-1.13,0.86-1.57,1.39 c-1.27,1.54-2.48,3.14-3.71,4.72c-0.12,0.15-0.18,0.35-0.32,0.47c-2.14,1.94-3.62,4.39-5.24,6.74c-1.87,2.73-3.32,5.73-5.14,8.45 c-1.63,2.43-2.34,5.16-3.54,7.71c-0.91,1.94-1.54,4.04-2.06,6.12c-0.78,3.19-1.42,6.42-2,9.65c-0.74,4.09-1.28,8.21-1.23,12.38 c0.04,3.28-0.18,6.57,0.06,9.83c0.21,2.87,0.84,5.72,1.41,8.55c0.43,2.13,1.06,4.21,1.62,6.31c0.9,3.34,2.54,6.35,4.28,9.3 c1.6,2.73,3.31,5.4,5.11,7.99c1.1,1.59,2.41,3.06,3.74,4.47c1.78,1.9,3.57,3.81,5.53,5.51c2.44,2.11,5.07,4,7.62,5.99 c0.18,0.14,0.38,0.3,0.58,0.33c2,0.26,3.26,1.84,4.89,2.74c2.09,1.16,4.16,2.38,6.23,3.57c0.39,0.23,0.85,0.41,1.13,0.73 c0.79,0.91,1.86,1.24,2.93,1.67c1.75,0.71,3.41,1.65,5.15,2.4c3.48,1.49,7,2.87,10.48,4.36c1.5,0.64,2.9,1.53,4.42,2.13 c1.56,0.61,3.2,0.99,4.81,1.47c1.57,0.48,3.13,0.97,4.7,1.44c1.86,0.55,3.73,1.08,5.59,1.63c3.33,0.98,6.64,2.01,9.98,2.93 c1.28,0.35,2.64,0.39,3.95,0.66c2.75,0.56,5.48,1.17,8.22,1.78c2.02,0.45,4.02,0.98,6.05,1.38c1.72,0.34,3.48,0.52,5.22,0.79 c2.07,0.33,4.13,0.69,6.2,1.01c1.14,0.18,2.29,0.36,3.44,0.42c2.04,0.11,4.06,0.2,6.04,0.82c0.92,0.29,2.04-0.06,2.98,0.19 c2.73,0.71,5.66-0.07,8.3,1.16c0.13,0.06,0.32,0.01,0.48,0.01c1.14,0,2.28-0.03,3.41,0.01c1.37,0.05,2.74,0.15,4.12,0.23 c3.71,0.24,7.43,0.48,11.14,0.72c1.01,0.07,2.02,0.21,3.03,0.23c4.84,0.1,9.68,0.16,14.51,0.26c1.55,0.03,3.09,0.23,4.64,0.22 c6.11-0.05,12.22-0.13,18.33-0.23c2.26-0.04,4.51-0.14,6.76-0.24c3.23-0.14,6.45-0.3,9.68-0.48c2.58-0.14,5.17-0.32,7.75-0.48 c2.7-0.16,5.41-0.3,8.11-0.49c3.07-0.22,6.15-0.45,9.21-0.72c3.32-0.29,6.64-0.64,9.96-0.96c2.67-0.25,5.35-0.43,8.01-0.74 c2.77-0.33,5.58-0.59,8.28-1.26c1.84-0.45,3.67-0.39,5.5-0.66c2.16-0.32,4.31-0.65,6.47-0.96c2.31-0.33,4.63-0.62,6.95-0.97 c1.92-0.29,3.83-0.61,5.74-0.96c2.05-0.37,4.08-0.8,6.13-1.2c1.63-0.32,3.27-0.64,4.9-0.96c2.04-0.4,4.09-0.77,6.12-1.21 c2.39-0.52,4.76-1.11,7.13-1.68c3.28-0.79,6.57-1.57,9.84-2.41c2.97-0.76,5.94-1.53,8.87-2.42c2.88-0.87,5.72-1.89,8.57-2.85 c1.83-0.62,3.65-1.27,5.49-1.87c1.88-0.61,3.8-1.09,5.64-1.8c2.32-0.9,4.56-1.98,6.84-2.97c0.65-0.28,1.32-0.5,1.97-0.77 c2.86-1.23,5.72-2.47,8.59-3.69c0.37-0.16,0.82-0.15,1.19-0.32c2.32-1.08,4.63-2.19,6.94-3.3c3.31-1.6,6.65-3.15,9.92-4.83 c2.39-1.23,4.73-2.57,7.03-3.96c2.51-1.52,4.95-3.17,7.43-4.75c1.97-1.26,4.01-2.41,5.9-3.77c3.51-2.52,6.93-5.17,10.42-7.73 c5.15-3.78,9.57-8.36,14.05-12.87c1.29-1.29,2.77-2.49,3.7-4.01c2.17-3.55,5.54-6.13,7.48-9.89c2.01-3.87,3.96-7.72,5.55-11.8 c1.37-3.52,2.02-7.19,3.01-10.79c0.44-1.58,0.39-3.3,0.52-4.97c0.11-1.45,0.24-2.9,0.23-4.36c-0.02-4.34,0.05-8.68-1.17-12.91 c-0.62-2.13-1.07-4.3-1.58-6.45c-0.94-3.98-2.61-7.67-4.46-11.28c-1.08-2.09-2.08-4.24-3.4-6.17c-1.68-2.44-3.61-4.72-5.52-6.99 c-1.25-1.49-2.58-2.92-4-4.24c-2.73-2.52-5.48-5.04-8.37-7.38c-2.36-1.91-4.9-3.62-7.44-5.29c-2.38-1.57-4.83-3.03-7.31-4.43 c-2.89-1.63-5.77-3.29-8.78-4.67c-5.26-2.4-10.61-4.61-15.94-6.87c-2.42-1.03-4.87-2-7.33-2.95c-2.67-1.03-5.34-2.04-8.04-2.97 c-2.18-0.75-4.42-1.34-6.62-2.05c-1.06-0.34-2.05-0.89-3.12-1.19c-2.74-0.77-5.58-1.23-8.23-2.23c-2.96-1.12-6.08-1.51-9.06-2.53 c-3.57-1.22-7.28-2.04-10.95-2.93c-2.64-0.65-5.31-1.13-7.97-1.7c-1.44-0.31-2.86-0.68-4.3-0.95c-1.95-0.36-3.91-0.66-5.86-0.97 c-1.66-0.27-3.32-0.52-4.98-0.78c-1.43-0.22-2.87-0.43-4.3-0.67c-0.7-0.12-1.39-0.36-2.09-0.46c-0.9-0.13-1.81-0.16-2.71-0.26 c-0.17-0.02-0.32-0.21-0.5-0.24c-0.6-0.13-1.19-0.27-1.8-0.33c-0.91-0.08-1.83-0.09-2.74-0.15c-0.21-0.02-0.43-0.25-0.62-0.22 c-2.2,0.42-4.3-0.56-6.47-0.51c-0.31,0.01-0.81-0.11-0.92-0.32c-0.51-0.98-1.22-0.54-1.93-0.4c-0.44,0.09-1.01,0.19-1.35-0.01 c-1.54-0.91-3.29-0.57-4.92-0.91c-2.3-0.49-4.64-0.83-6.96-1.22c-0.49-0.08-1-0.1-1.5-0.15c0.34-0.42,0.73-0.81,1-1.28 c0.12-0.2,0.11-0.64-0.03-0.78c-0.14-0.14-0.62-0.16-0.78-0.03c-1.12,0.94-1.92,0.19-2.94-0.28c-1-0.46-2.23-0.44-3.35-0.62 c-0.61-0.1-1.22-0.15-1.83-0.25c-0.19-0.03-0.35-0.17-0.53-0.25c0.12-0.23,0.18-0.6,0.37-0.67c0.76-0.3,1.56-0.73,2.34-0.71 c3.39,0.07,6.8,0.08,10.15,0.5c3.61,0.45,7.2,0.87,10.85,0.97c2.61,0.07,5.21,0.75,7.81,1.13c0.39,0.06,0.81,0.06,1.2,0 c2.79-0.41,5.45,0.5,8.17,0.74c2.11,0.19,4.22,0.43,6.32,0.72c2.53,0.35,5.05,0.8,7.58,1.18c0.88,0.13,1.79,0.12,2.66,0.27 c3,0.49,6.01,0.96,8.99,1.55c2.65,0.53,5.28,1.21,7.92,1.81c3.23,0.73,6.47,1.43,9.7,2.18c2.63,0.61,5.26,1.23,7.87,1.93 c2.7,0.72,5.39,1.5,8.07,2.33c3.45,1.07,6.89,2.16,10.31,3.32c3.87,1.31,7.74,2.63,11.55,4.1c4.15,1.6,8.23,3.38,12.34,5.09 c1.58,0.66,3.15,1.31,4.7,2.02c1.25,0.57,2.48,1.19,3.7,1.82c2.98,1.52,5.98,3.02,8.93,4.61c1.98,1.07,3.88,2.28,5.8,3.44 c1.83,1.11,3.72,2.14,5.45,3.4c1.82,1.31,3.46,2.87,5.21,4.27c0.52,0.42,1.23,0.61,1.72,1.05c1.48,1.31,2.87,2.72,4.34,4.05 c0.65,0.59,1.49,1,2.08,1.64c3.19,3.47,6.64,6.71,9.15,10.77c1.06,1.71,2.45,3.22,3.44,4.97c1.17,2.06,2.08,4.27,3.1,6.42 c0.78,1.64,1.54,3.3,2.33,4.93c0.89,1.84,1.53,3.74,1.71,5.8c0.05,0.56,0.52,1.07,0.68,1.63c0.81,2.73,1.65,5.43,1.73,8.33 c0.04,1.49,0.52,2.95,0.66,4.44c0.08,0.84-0.18,1.7-0.2,2.55c-0.04,1.5,0.03,3-0.02,4.5c-0.06,1.95,0.04,3.93-1.08,5.69 c-0.13,0.21-0.18,0.56-0.1,0.79c0.6,1.76,0,3.39-0.5,5.02c-1.14,3.74-2.15,7.53-3.5,11.2c-0.84,2.29-2.15,4.41-3.37,6.55 c-1.94,3.41-3.99,6.73-6.66,9.67c-1.47,1.62-2.98,3.28-4.09,5.24c-0.68,1.19-1.62,2.28-2.61,3.25c-1.87,1.85-3.88,3.56-5.78,5.37 c-0.43,0.41-0.62,1.07-1.05,1.48c-2.63,2.52-5.25,5.06-7.98,7.49c-2.02,1.79-4.06,3.62-6.35,5.01c-0.86,0.52-1.44,1.16-2.16,1.69 c-3.72,2.78-7.73,5.17-11.52,7.87c-2.86,2.03-5.91,3.74-8.94,5.48c-1.56,0.9-3.05,1.92-4.65,2.73c-1.1,0.56-2.71,0.18-3.22,1.82 c-3.16,1.01-5.73,3.15-8.75,4.46c-4.05,1.76-7.96,3.86-11.99,5.65c-2.06,0.91-4.28,1.48-6.43,2.2c-0.32,0.11-0.75,0.06-0.97,0.26 c-3.07,2.76-7.22,2.94-10.77,4.55c-1.52,0.69-3.04,1.4-4.63,1.91c-1.64,0.53-3.36,0.8-5.03,1.24c-0.93,0.25-1.82,0.65-2.75,0.92 c-0.97,0.29-1.97,0.74-2.94,0.69c-1.27-0.06-2.15,0.7-3.22,1.01c-1.51,0.44-3.04,0.81-4.56,1.22c-0.87,0.23-1.73,0.47-2.59,0.72 c-1.47,0.43-2.93,0.87-4.4,1.31c-0.03,0.01-0.05,0.07-0.09,0.08c-1.54,0.26-3.08,0.52-4.62,0.77c-0.23,0.04-0.53-0.08-0.71,0.02 c-2.72,1.51-5.85,1.33-8.76,2.1c-3.82,1.02-7.74,1.7-11.64,2.45c-2.88,0.55-5.78,0.97-8.67,1.46c-2.25,0.38-4.48,0.85-6.73,1.19 c-2.06,0.31-4.14,0.45-6.2,0.75c-2.49,0.36-4.96,0.82-7.45,1.18c-1.53,0.22-3.08,0.31-4.62,0.5c-2.48,0.3-4.95,0.66-7.43,0.95 c-1.16,0.14-2.34,0.15-3.51,0.25c-3.6,0.31-7.2,0.64-10.8,0.96c-1.86,0.16-3.72,0.36-5.58,0.47c-3.26,0.19-6.53,0.31-9.8,0.5 c-1.9,0.11-3.8,0.32-5.7,0.47c-0.26,0.02-0.72,0-0.77-0.11c-0.51-1.42-0.83-0.14-1.3,0.02c-0.71,0.24-1.51,0.28-2.27,0.34 c-1.41,0.11-2.82,0.2-4.24,0.24c-3.38,0.1-6.76,0.16-10.14,0.25c-2.3,0.06-4.59,0.15-6.89,0.24c-1.61,0.06-3.22,0.2-4.84,0.23 c-2.18,0.04-4.36,0.01-6.54,0.01c-1.39,0-2.78,0.52-4.18-0.19c-0.42-0.21-1.12,0.19-1.68,0.18c-4.62-0.06-9.25-0.11-13.87-0.24 c-3.24-0.09-6.48-0.26-9.72-0.48c-3.93-0.27-7.85-0.61-11.76-0.96c-3.32-0.29-6.64-0.64-9.96-0.96c-1.74-0.17-3.56-0.06-5.2-0.54 c-2.98-0.88-6.11-0.59-9.1-1.54c-2.34-0.75-4.93-0.7-7.4-1.06c-1.38-0.2-2.75-0.54-4.12-0.79c-1.64-0.3-3.3-0.56-4.93-0.89 c-1.81-0.37-3.61-0.78-5.4-1.2c-2.38-0.55-4.79-0.99-7.12-1.72c-2.71-0.85-5.54-1.14-8.23-2.21c-1.63-0.64-3.39-1.06-5.05-1.78 c-0.78-0.34-1.81-0.06-2.64-0.33c-3.61-1.15-7.21-2.36-10.78-3.62c-1.08-0.38-2.04-1.09-3.1-1.53c-3.38-1.42-6.84-2.68-10.17-4.22 c-2.4-1.11-4.64-2.56-6.96-3.86c-2.31-1.29-4.68-2.49-6.94-3.88c-2.38-1.46-4.67-3.09-6.98-4.67c-1.2-0.82-2.35-1.7-3.53-2.53 c-1.02-0.72-2.16-1.32-3.06-2.17c-1.96-1.82-3.81-3.77-5.71-5.67c-0.82-0.82-1.61-1.66-2.46-2.45c-2.03-1.89-3.4-4.27-5.05-6.45 c-2.47-3.26-4.24-6.9-6.07-10.5c-1.24-2.44-2.46-4.96-3.2-7.57c-0.93-3.27-1.38-6.67-2-10.02c-0.98-5.32-0.86-10.72-0.66-16.08 c0.14-3.83,0.93-7.63,1.37-11.45c0.62-5.41,2.16-10.61,3.92-15.73c1.14-3.32,2.86-6.44,4.27-9.67c0.62-1.43,1.07-2.93,1.72-4.34 c0.41-0.88,1.02-1.67,1.58-2.47c1.62-2.3,3.23-4.61,4.9-6.88c1.71-2.32,3.46-4.6,5.23-6.86c1.15-1.47,2.35-2.9,3.58-4.3 c0.74-0.84,1.58-1.58,2.36-2.38c1.94-2,3.78-4.1,5.81-6.01c2.5-2.35,5.16-4.54,7.74-6.82c2.29-2.03,4.51-4.14,6.86-6.09 c2-1.66,4.15-3.14,6.23-4.7c2.05-1.54,4.08-3.11,6.17-4.59c1.82-1.28,3.72-2.44,5.58-3.68c2.46-1.64,4.89-3.3,7.35-4.93 c0.91-0.6,1.84-1.16,2.77-1.73c2.21-1.36,4.4-2.74,6.63-4.05c1.9-1.11,3.87-2.1,5.78-3.18c2.86-1.62,5.7-3.29,8.57-4.91 c0.87-0.49,1.81-0.87,2.69-1.35c0.54-0.3,0.93-0.55,0.29-1.31c-0.6-0.71-0.84-1.72-1.23-2.61c-0.05-0.11,0.03-0.39,0.06-0.39 c0.19-0.01,0.48-0.03,0.55,0.08c0.45,0.65,0.96,1.29,1.23,2.02c0.34,0.94,0.81,1.32,1.71,0.89c1.68-0.8,3.31-1.7,4.98-2.51 c1.23-0.6,2.5-1.13,3.75-1.69c1.08-0.48,2.15-1.02,3.26-1.42c0.71-0.26,0.56-0.66,0.28-1.02c-0.41-0.54-0.92-0.98-1.38-1.49 c-0.09-0.1-0.11-0.28-0.16-0.42c0.18,0.01,0.42-0.06,0.52,0.03c0.41,0.38,0.93,0.74,1.14,1.22c0.43,1.01,1.16,0.82,1.82,0.54 c3.01-1.27,5.97-2.64,8.99-3.89c3.63-1.51,7.31-2.9,10.94-4.4c1.54-0.64,3.01-1.46,4.53-2.14c0.44-0.2,0.98-0.13,1.45-0.29 c4.05-1.37,8.07-2.82,12.13-4.15c2.37-0.78,4.81-1.37,7.21-2.09c2.07-0.62,4.11-1.34,6.19-1.91c3.15-0.86,6.32-1.6,9.47-2.43 c2.42-0.64,4.81-1.4,7.23-2.01c2.41-0.6,4.86-1.07,7.29-1.6c0.77-0.17,1.54-0.35,2.3-0.55c2.43-0.62,4.86-1.28,7.3-1.84 c0.94-0.21,1.95-0.12,2.9-0.28c1.83-0.3,3.64-0.72,5.47-1.02c1.55-0.26,3.11-0.43,4.67-0.65c1.14-0.16,2.32-0.19,3.4-0.53 c0.62-0.2,1.07-0.92,1.6-1.4c0.27-0.25,0.56-0.47,0.84-0.71c0.04,0.28,0.01,0.6,0.14,0.82c0.15,0.25,0.47,0.62,0.66,0.59 c2.49-0.36,4.97-0.81,7.46-1.16c1.2-0.17,2.42-0.15,3.63-0.26c1.52-0.14,3.03-0.31,4.54-0.48c2.92-0.32,5.83-0.69,8.76-0.94 c1.45-0.12,2.92,0.02,4.37-0.03c3.95-0.14,7.9-0.34,11.84-0.46c1.01-0.03,2.02,0.18,3.03,0.22c3.19,0.1,6.38,0.15,9.58,0.25 c3.65,0.11,7.25,0.67,10.87,1.12c1.65,0.21,3.35,0.28,5.01,0.57c2.13,0.37,4.25,0.97,6.4,1.07c2,0.09,3.01,2.09,4.93,2.13 c0.11,0,0.32,0.4,0.29,0.44c-0.16,0.19-0.39,0.44-0.59,0.43c-0.85-0.03-1.7-0.12-2.55-0.22c-2.03-0.23-4.05-0.52-6.08-0.71 c-2.87-0.28-5.75-0.73-8.61-0.64c-1.68,0.05-3.37-0.62-5.13,0.25C279.58,5.39,278.17,5.03,276.83,5.04 M356.19,37.32 c-0.32,0.08-0.65,0.17-0.97,0.26c-0.01,0,0.03,0.14,0.04,0.22c0.35-0.16,0.7-0.32,1.17-0.48c0.2-0.05,0.4-0.1,0.6-0.15 c-0.03-0.1-0.06-0.2-0.09-0.3C356.73,37.02,356.52,37.17,356.19,37.32 M405.45,208.21c-0.08,0.16-0.15,0.33-0.23,0.49 c0.19-0.04,0.41-0.04,0.57-0.13c1.26-0.71,2.52-1.45,3.78-2.17c0.22-0.13,0.46-0.23,0.68-0.37c0.01-0.01-0.12-0.34-0.17-0.33 c-0.29,0.04-0.61,0.07-0.87,0.2c-0.4,0.21-0.75,0.51-1.13,0.74C407.25,207.14,406.41,207.61,405.45,208.21 M383.89,44.06 c-0.28,0.22-0.56,0.45-0.84,0.67c0.28,0.1,0.58,0.32,0.83,0.27c0.46-0.09,0.89-0.33,1.33-0.51c-0.1-0.12-0.17-0.3-0.29-0.34 C384.67,44.08,384.4,44.09,383.89,44.06 M364.5,38.65c-0.32,0.29-0.65,0.58-0.95,0.89c-0.02,0.02,0.23,0.41,0.33,0.4 c0.28-0.03,0.72-0.13,0.77-0.3C364.77,39.3,364.65,38.9,364.5,38.65 M430.5,70.2c0.3,0.1,0.6,0.2,0.9,0.3 c-0.1-0.38-0.14-0.78-0.31-1.13c-0.09-0.18-0.37-0.27-0.57-0.4C430.51,69.3,430.51,69.63,430.5,70.2 M463.62,107.41 c-0.01,0.23-0.03,0.45-0.04,0.68c0.35-0.09,0.71-0.17,1.06-0.26C464.38,107.7,464.12,107.55,463.62,107.41 M281.16,248.68 c0.1,0.12,0.2,0.24,0.29,0.36c0.04-0.38,0.11-0.76,0.11-1.14c0-0.06-0.26-0.13-0.39-0.19C281.17,247.95,281.17,248.2,281.16,248.68 M106.41,41.42c0.25,0.16,0.49,0.32,0.75,0.45c0.02,0.01,0.18-0.26,0.27-0.4C107.13,41.41,106.83,41.35,106.41,41.42 M327.89,29.25 c0.24,0.08,0.49,0.19,0.74,0.2c0.06,0,0.14-0.3,0.2-0.47C328.56,29.03,328.28,29.08,327.89,29.25 M372.81,43.1 c-0.11,0.22-0.21,0.43-0.32,0.65c0.29-0.08,0.59-0.17,0.88-0.25C373.27,43.36,373.16,43.23,372.81,43.1 M351.86,37.32 c-0.19,0.13-0.37,0.27-0.56,0.4c0.14,0.08,0.37,0.24,0.39,0.22C351.85,37.75,351.97,37.53,351.86,37.32 M419.9,58.64 c-0.18-0.2-0.35-0.4-0.53-0.6c-0.06,0.11-0.2,0.31-0.18,0.32C419.37,58.51,419.58,58.63,419.9,58.64 M67.76,64.66 c0.29,0.11,0.57,0.23,0.86,0.34c0.03-0.1,0.07-0.2,0.1-0.31C68.44,64.64,68.16,64.59,67.76,64.66 M406.41,205.81 c0.16,0.08,0.33,0.15,0.49,0.23c0.04-0.19,0.08-0.39,0.12-0.58C406.86,205.53,406.7,205.61,406.41,205.81 M364.38,40.93 c0.13,0.16,0.26,0.32,0.39,0.48c0.07-0.07,0.14-0.14,0.21-0.21C364.82,41.07,364.66,40.94,364.38,40.93 M325,28.53 c-0.17-0.12-0.34-0.24-0.51-0.36c-0.07,0.11-0.14,0.22-0.21,0.32C324.48,28.54,324.68,28.6,325,28.53 M422.31,195.93 c0.2,0.2,0.39,0.39,0.59,0.59c0.05-0.05,0.13-0.14,0.13-0.14C422.83,196.18,422.63,196,422.31,195.93 M357.16,39.49 c-0.09-0.16-0.17-0.31-0.26-0.47c-0.11,0.11-0.22,0.22-0.33,0.33C356.72,39.44,356.88,39.52,357.16,39.49 M210.83,7.33 c0.05,0.2,0.1,0.4,0.15,0.6c0.1-0.03,0.2-0.06,0.3-0.09C211.17,7.63,211.06,7.42,210.83,7.33z" style="fill: inherit;"/><path d="M232.33,248.26c-0.14-0.54-0.26-1.03-0.28-1.51c-0.01-0.19,0.21-0.38,0.32-0.57c0.13,0.13,0.28,0.24,0.38,0.4 C233.22,247.33,233.05,248.14,232.33,248.26z" style="fill: inherit;"/><path d="M102.5,240.43c-0.2,0.4-0.34,0.75-0.47,1.09c-0.1-0.39-0.21-0.78-0.3-1.18c-0.01-0.05,0.05-0.13,0.1-0.19 c0.24-0.33,0.49-0.66,0.74-0.98C102.56,239.57,102.56,239.97,102.5,240.43z" style="fill: inherit;"/><path d="M388.41,40.75c0.14-0.14,0.23-0.21,0.31-0.29c-0.12,0.35-0.21,0.72-0.37,1.05c-0.03,0.07-0.31,0.03-0.47,0.04 C388.04,41.3,388.19,41.06,388.41,40.75z" style="fill: inherit;"/><path d="M81.48,109.1c0.31,0.22,0.49,0.43,0.68,0.65c-0.35-0.06-0.69-0.11-1.04-0.17C81.2,109.42,81.28,109.26,81.48,109.1z" style="fill: inherit;"/><path d="M301.94,4.26c0.23-0.17,0.51-0.29,0.8-0.4c0.03,0.1,0.07,0.2,0.1,0.31C302.56,4.22,302.28,4.27,301.94,4.26z" style="fill: inherit;"/><path d="M83.47,169.86c-0.19-0.06-0.31-0.17-0.44-0.29c0.27-0.06,0.54-0.12,0.81-0.18C83.74,169.53,83.64,169.66,83.47,169.86z" style="fill: inherit;"/><path d="M200.47,196.05c0.07,0.21,0.01,0.43-0.04,0.64c-0.14-0.08-0.27-0.17-0.41-0.25C200.13,196.31,200.24,196.18,200.47,196.05z" style="fill: inherit;"/><path d="M92.38,272.59c0.11-0.18,0.28-0.3,0.45-0.42c0.07,0.11,0.14,0.22,0.21,0.32C92.85,272.54,92.64,272.59,92.38,272.59z" style="fill: inherit;"/><path d="M385.16,227.66c-0.11,0.18-0.28,0.3-0.45,0.42c-0.07-0.11-0.14-0.22-0.21-0.32C384.69,227.71,384.89,227.66,385.16,227.66z" style="fill: inherit;"/><path d="M277.97,26.66c-0.24-0.08-0.43-0.22-0.61-0.36c0.08-0.08,0.17-0.17,0.25-0.25C277.75,26.24,277.89,26.42,277.97,26.66z" style="fill: inherit;"/><path d="M427.67,55.69c-0.22,0.06-0.37,0.07-0.53,0.07c0.02-0.1,0.03-0.3,0.05-0.3c0.21-0.02,0.41,0,0.62,0.01 c0,0,0.01,0.06,0,0.08C427.79,55.58,427.76,55.6,427.67,55.69z" style="fill: inherit;"/></g></svg>