<svg xmlns="http://www.w3.org/2000/svg" xmlns:xlink="http://www.w3.org/1999/xlink" preserveAspectRatio="xMidYMid meet" version="1.0" viewBox="-0.0 -0.5 289.5 82.5" zoomAndPan="magnify" style="fill: rgb(136, 136, 136);" original_string_length="2778"><g data-name="18" id="__id113_szzowew9zb"><path d="M287.031,37.013a76.6,76.6,0,0,1-7.775,6.464,10.323,10.323,0,0,0,1.694-4.766c.379-4.176-1.5-8.43-3.9-11.753-4.445-6.163-11.33-9.877-18.342-12.395-8.155-2.928-16.808-4.479-25.291-6.119a464.359,464.359,0,0,0-58.4-7.613,373.649,373.649,0,0,0-58.863.7A303.438,303.438,0,0,0,58.746,12.381,265.2,265.2,0,0,0,31.28,22.128C23.137,25.539,14.465,29.347,8.992,36.6A22.66,22.66,0,0,0,4.38,49.108a20.648,20.648,0,0,0-3.248,5.237A13.985,13.985,0,0,0,0,59.442a13.428,13.428,0,0,0,.208,2.594c.2,1.18.85,1.3,1.9,1.79a135.973,135.973,0,0,0,13.256,5.389A155.179,155.179,0,0,0,35.246,74.6c16.776,5.23,34.554,6.775,52.054,7.1a558.131,558.131,0,0,0,63.563-2.579,587,587,0,0,0,63.452-9.581c18.116-3.76,36.534-7.982,53.15-16.379a87.6,87.6,0,0,0,21.041-14.681C289.48,37.56,288,36.087,287.031,37.013ZM11.963,36.361c6.105-6.788,15.143-10.281,23.419-13.606a278.265,278.265,0,0,1,54.441-15.5,335.33,335.33,0,0,1,56.83-5.111,417.232,417.232,0,0,1,56.923,3.6q14.329,1.862,28.527,4.6c8.337,1.6,16.824,3.119,24.88,5.854,6.971,2.367,14.143,5.941,18.467,12.138,2.435,3.489,4.522,8.309,2.878,12.54-1.462,3.763-5.466,5.762-8.9,7.388-17.372,8.234-35.872,13.951-54.644,17.971a437.453,437.453,0,0,1-57.5,7.9c-19.159,1.5-38.4,2.377-57.61,2.83-18.963.448-38.065.163-56.829-2.881-1.472-.239-2.94-.5-4.406-.776-1.637-.47-3.269-.961-4.885-1.5a104.778,104.778,0,0,1-13.262-5.423c-3.69-1.822-7.4-3.9-10.171-7.005A14.2,14.2,0,0,1,6.548,49.349c5.021-5.5,12.285-8.893,18.834-12.088A221.944,221.944,0,0,1,50.848,26.775a280.171,280.171,0,0,1,52.827-12.2,434.735,434.735,0,0,1,55.558-3.662c18.654-.143,37.305.593,55.925,1.672,8.916.517,17.827,1.115,26.737,1.736.848.059.843-1.26,0-1.32-19.125-1.374-38.265-2.658-57.433-3.237a564.213,564.213,0,0,0-57.489.865,330.975,330.975,0,0,0-55.83,8.491,234.429,234.429,0,0,0-52.1,19.434A56.782,56.782,0,0,0,6.861,46.534,21.436,21.436,0,0,1,11.963,36.361ZM9.04,64.893Q7.4,64.23,5.776,63.522a16.831,16.831,0,0,1-3.447-1.569c-.434-.34-.438-.533-.5-1.146-.038-.389-.054-.781-.053-1.172a11.521,11.521,0,0,1,.413-2.977,15.491,15.491,0,0,1,2.3-4.737,15.65,15.65,0,0,0,2.844,7.413A27.7,27.7,0,0,0,16.95,67.09c1.264.679,2.552,1.315,3.851,1.93-1.736-.528-3.465-1.077-5.182-1.669Q12.3,66.206,9.04,64.893ZM120.519,79.072c-17.289.748-34.8,1.1-52.076-.458q1.951.1,3.9.18c19.681.779,39.416-.115,59.075-1.066,10.606-.513,21.21-1.17,31.789-2.089Q141.935,78.134,120.519,79.072Z" style="fill: inherit;"/></g></svg>