<svg xmlns="http://www.w3.org/2000/svg" width="192" height="192"><path fill="#FFBD5A" d="M0 0h192v192H0V0Z"/><path fill="#E34335" d="M98 4h89v90l-33 1c-4.158 2.526-4.158 2.526-5 6-.135 6.7-.135 6.7 4 13 0 7.176 0 7.176-4 12-2.405 1.203-3.95 1.1-6.625 1.063l-2.477-.028C138 127 138 127 132 122c-.324-4.619-.518-7.661 2-11.625 2.15-3.628 2.55-5.256 2-9.375-1.207-3.343-1.92-3.947-5-6l-32-1-1-33c-5.21-5.302-5.21-5.302-11.531-5.266-3.884.418-6.27 2.088-9.469 4.266-7-1-7-1-11-6-1.03-8.242-1.03-8.242 3-14 3.925-2.617 5.445-1.835 10-1l4 3h10c7.981-7.066 7.981-7.066 5-38Z"/><path fill="#2D7EF4" d="m49.625 64.938 2.477.027C54 65 54 65 60 70c.324 4.619.518 7.661-2 11.625-2.15 3.628-2.55 5.256-2 9.375 1.207 3.343 1.92 3.947 5 6l32 1 1 33 5 5c9.766 1.041 9.766 1.041 15-4 6.558 0 6.503.145 11 4 2.289 3.27 2.178 6.08 2 10-4 6.571-4 6.571-8 8-4.39-.51-7.337-1.522-11-4h-9c-8.855 7.713-8.855 7.713-6 38H5V98l33-1c5.266-4.188 5.266-4.188 5.25-8.063-.236-3.71-.39-4.548-2.25-7.437-2.27-3.525-2.343-6.302-2-10.5 3.51-4.562 4.863-6.145 10.625-6.063Z"/><path fill="#02BF64" d="M98 98c31 0 31 0 34 2 0 8 0 8-4 14 0 7.288.046 7.694 4 13 5.088 3.634 10.002 3.32 16 3 4.577-2.88 4.577-2.88 8-7 .506-6.986.033-11.202-4-17 1-6 1-6 3-8h32v90H98c0-33 0-33 2-35 5.777-.578 9.064 1.276 14 4 9.01-.7 9.01-.7 14-6 2.608-3.602 2.656-7.714 2-12-1.654-4.296-4.023-7.585-8-10-6.655-.543-10.458.227-16 4-7-1-7-1-8-2V98Z"/><path fill="#F7F8F7" d="M0 0h192v192H0V0Zm5 4v90h32c3.367-3.533 3.367-3.533 2.688-6.688-.7-3.37-1.775-5.485-3.688-8.312 0-10.333 0-10.333 4-15 3.275-2.126 5.895-2.217 9.75-2.125l2.984.055c3.557.11 5.448 1.97 8.266 4.07 2.684 4.116 3.349 7.119 3 12l-5 8 1 6c9.446 6.297 22.647 2 34 2V61c-3.947-2.632-5.395-1.817-10-1-3.334 1.457-3.334 1.457-6 3-9.526-1.058-9.526-1.058-14-5-2.38-4.081-2.572-8.379-2-13 1.8-5.199 4.285-7.276 9-10 5.258-.315 8.464.3 13 3l1 1c5.769.555 5.769.555 9-2V4H5Zm93 0-1 34-4 4c-10 0-10 0-16-4-7.32.23-7.32.23-11 6-1.078 7.287-1.078 7.287 2 13 2.05 1.853 2.05 1.853 4 3 4.776-.468 8.045-1.243 12-4h9c5 5 5 5 6 38l32 1c4.868 4.868 4.868 4.868 5.313 8.688-.338 3.577-1.525 5.446-3.422 8.433-1.558 3.286-1.142 6.305-.891 9.879 5.85 5.96 5.85 5.96 15 5 3.524-2.546 3.524-2.546 6-6 .127-6.7.127-6.7-4-13 0-7 0-7 3-12 10.452-5.226 23.32-1.646 35-2V4H98ZM40 69c-1.56 3.119-1.283 5.545-1 9 .925 1.83 2 3.499 3.11 5.223 1.445 2.884 1.146 5.635.89 8.777-5 5-5 5-38 6v90h88l1-33c5.226-5.226 5.226-5.226 11.531-5.266 3.884.418 6.27 2.088 9.469 4.266 7.317-.941 7.317-.941 11-6 1.354-2.709 1.065-5.01 1-8-2.88-4.577-2.88-4.577-7-8-6.286-.625-6.286-.625-11 4H99c-5-5-5-5-6-38l-32-1c-4.868-4.868-4.868-4.868-5.313-8.688.338-3.577 1.525-5.446 3.422-8.433 1.558-3.286 1.142-6.305.891-9.879-7.513-6.26-12.575-7.157-20-1Zm58 29v33c3.936 2.624 5.42 1.826 10 1 2.852-1.442 2.852-1.442 5-3 9.474 0 9.474 0 14 4 2.937 4.456 3.96 8.732 3 14-2.444 5.596-4.184 7.092-10 10-5.38-.34-9.533-.686-14-4h-6l-2 2v33h89V98h-32c-3.367 3.533-3.367 3.533-2.688 6.688.7 3.37 1.775 5.485 3.688 8.312 0 10.333 0 10.333-4 15-4.446 2.771-8.922 2.506-14 2-5.236-1.745-7.27-4.274-10-9 0-7 0-7 4-13v-8c-9.446-6.297-22.647-2-34-2Z"/></svg>