<svg xmlns="http://www.w3.org/2000/svg" xmlns:xlink="http://www.w3.org/1999/xlink" preserveAspectRatio="xMidYMid meet" version="1.1" viewBox="113.3 113.4 198.7 198.4" zoomAndPan="magnify" style="fill: rgb(0, 0, 0);" original_string_length="4350">
 <g id="__id40_s9u2sblnba">
  <g id="__id41_s9u2sblnba"><path d="m123.57 261.49c1.86 0 3.59-0.49 5.1-1.35 0.58-0.33 1.12-0.72 1.63-1.15 1.41-0.82 3.51-1.6 5.3-0.51v24.02c0 4.06 3.29 7.35 7.35 7.35h24.32c0.73 1.58 0.17 3.33-0.53 4.63-1.72 1.84-2.79 4.31-2.79 7.04 0 5.68 4.62 10.29 10.3 10.29 5.69 0 10.3-4.61 10.3-10.29 0-1.86-0.5-3.6-1.35-5.11-0.34-0.58-0.72-1.12-1.15-1.62-0.77-1.32-1.5-3.24-0.7-4.94h24.2c4.06 0 7.35-3.29 7.35-7.35v-24.02c-1.79-1.09-3.89-0.31-5.3 0.51-0.5 0.43-1.05 0.82-1.63 1.15-1.5 0.86-3.24 1.35-5.1 1.35-5.69 0-10.3-4.61-10.3-10.29 0-5.69 4.61-10.3 10.3-10.3 2.72 0 5.19 1.06 7.04 2.78 1.4 0.75 3.33 1.36 4.99 0.34v-24.13c0-4.05-3.29-7.34-7.35-7.34h-24.01c-1.1 1.79-0.32 3.89 0.51 5.3 0.43 0.51 0.81 1.05 1.15 1.63 0.85 1.5 1.35 3.24 1.35 5.1 0 5.69-4.61 10.3-10.3 10.3-5.68 0-10.3-4.61-10.3-10.3 0-2.72 1.07-5.2 2.79-7.04 0.75-1.4 1.35-3.33 0.33-4.99h-24.12c-4.06 0-7.35 3.29-7.35 7.34v24.13c-1.66 1.02-3.59 0.41-4.99-0.34-1.84-1.72-4.32-2.78-7.04-2.78-5.69 0-10.3 4.61-10.3 10.3 0 5.68 4.61 10.29 10.3 10.29" style="fill: rgb(0, 191, 99);"/></g>
  <g id="__id42_s9u2sblnba"><path d="m240.77 200.46c0 1.86 0.49 3.6 1.35 5.1 0.33 0.58 0.72 1.13 1.15 1.63 0.82 1.41 1.61 3.51 0.5 5.3h-24.01c-4.06 0-7.35 3.29-7.35 7.35v24.32c-1.57 0.73-3.33 0.17-4.63-0.53-1.84-1.72-4.31-2.78-7.03-2.78-5.69 0-10.3 4.61-10.3 10.29 0 5.69 4.61 10.3 10.3 10.3 1.85 0 3.59-0.49 5.1-1.35 0.58-0.34 1.12-0.72 1.62-1.15 1.32-0.77 3.24-1.5 4.94-0.7v24.21c0 4.06 3.29 7.35 7.35 7.35h24.01c1.11-1.8 0.32-3.9-0.5-5.31-0.43-0.5-0.82-1.04-1.15-1.62-0.86-1.51-1.35-3.25-1.35-5.11 0-5.69 4.61-10.3 10.29-10.3 5.69 0 10.3 4.61 10.3 10.3 0 2.72-1.06 5.2-2.79 7.04-0.75 1.4-1.35 3.33-0.32 5h24.12c4.06 0 7.35-3.29 7.35-7.35v-24.02c-1.79-1.1-3.9-0.32-5.31 0.51-0.5 0.43-1.05 0.81-1.62 1.15-1.51 0.86-3.25 1.35-5.11 1.35-5.69 0-10.29-4.61-10.29-10.3 0-5.68 4.6-10.29 10.29-10.29 2.72 0 5.2 1.06 7.04 2.78 1.4 0.75 3.33 1.36 5 0.33v-24.12c0-4.06-3.29-7.35-7.35-7.35h-24.12c-1.03-1.66-0.43-3.59 0.32-4.99 1.73-1.84 2.79-4.32 2.79-7.04 0-5.69-4.61-10.3-10.3-10.3-5.68 0-10.29 4.61-10.29 10.3" style="fill: rgb(44, 126, 244);"/></g>
  <g id="__id43_s9u2sblnba"><path d="m301.63 163.71c-1.86 0-3.59 0.49-5.1 1.35-0.58 0.33-1.12 0.72-1.62 1.15-1.42 0.82-3.52 1.61-5.31 0.5v-24.01c0-4.06-3.29-7.35-7.35-7.35h-24.31c-0.74-1.57-0.17-3.33 0.52-4.63 1.73-1.84 2.79-4.31 2.79-7.04 0-5.68-4.61-10.29-10.3-10.29s-10.3 4.61-10.3 10.29c0 1.86 0.49 3.6 1.36 5.11 0.33 0.58 0.71 1.12 1.15 1.62 0.77 1.32 1.49 3.23 0.7 4.94h-24.21c-4.06 0-7.35 3.29-7.35 7.35v24.01c1.79 1.11 3.89 0.32 5.31-0.5 0.5-0.43 1.04-0.82 1.62-1.15 1.5-0.86 3.24-1.35 5.1-1.35 5.69 0 10.3 4.61 10.3 10.29 0 5.69-4.61 10.3-10.3 10.3-2.72 0-5.19-1.06-7.03-2.78-1.41-0.75-3.34-1.36-5-0.34v24.12c0 4.06 3.29 7.35 7.35 7.35h24.01c1.1-1.79 0.32-3.89-0.5-5.3-0.44-0.5-0.82-1.05-1.15-1.63-0.87-1.5-1.36-3.24-1.36-5.1 0-5.69 4.61-10.3 10.3-10.3s10.3 4.61 10.3 10.3c0 2.72-1.06 5.2-2.79 7.04-0.75 1.4-1.35 3.33-0.33 4.99h24.12c4.06 0 7.35-3.29 7.35-7.35v-24.12c1.67-1.02 3.6-0.41 5 0.34 1.84 1.72 4.31 2.78 7.03 2.78 5.69 0 10.3-4.61 10.3-10.3 0-5.68-4.61-10.29-10.3-10.29" style="fill: rgb(255, 203, 115);"/></g>
  <g id="__id44_s9u2sblnba"><path d="m184.55 224.74c0-1.86-0.49-3.6-1.35-5.1-0.34-0.58-0.72-1.12-1.15-1.63-0.82-1.41-1.61-3.51-0.51-5.3h24.02c4.06 0 7.34-3.3 7.34-7.35v-24.32c1.58-0.74 3.33-0.17 4.64 0.53 1.84 1.72 4.31 2.78 7.03 2.78 5.69 0 10.3-4.61 10.3-10.3 0-5.68-4.61-10.29-10.3-10.29-1.86 0-3.59 0.49-5.1 1.35-0.58 0.34-1.12 0.72-1.62 1.16-1.33 0.76-3.24 1.49-4.95 0.69v-24.21c0-4.05-3.28-7.35-7.34-7.35h-24.02c-1.1 1.8-0.31 3.9 0.51 5.31 0.43 0.5 0.81 1.05 1.15 1.63 0.86 1.5 1.35 3.24 1.35 5.1 0 5.68-4.61 10.29-10.29 10.29-5.69 0-10.3-4.61-10.3-10.29 0-2.73 1.06-5.2 2.78-7.04 0.75-1.4 1.36-3.33 0.33-5h-24.12c-4.06 0-7.34 3.3-7.34 7.35v24.02c1.78 1.1 3.88 0.32 5.3-0.5 0.5-0.44 1.04-0.82 1.62-1.16 1.51-0.86 3.25-1.35 5.11-1.35 5.68 0 10.29 4.61 10.29 10.29 0 5.69-4.61 10.3-10.29 10.3-2.73 0-5.2-1.06-7.04-2.78-1.4-0.75-3.33-1.36-4.99-0.33v24.12c0 4.05 3.28 7.35 7.34 7.35h24.12c1.03 1.66 0.42 3.59-0.33 4.99-1.72 1.84-2.78 4.32-2.78 7.04 0 5.69 4.61 10.3 10.3 10.3 5.68 0 10.29-4.61 10.29-10.3" style="fill: rgb(227, 66, 52);"/></g>
 </g>
</svg>